<!--suppress ALL -->
<svg xmlns="http://www.w3.org/2000/svg" xmlns:xlink="http://www.w3.org/1999/xlink" viewBox="0 0 34.15314 36">
  <defs>
    <clipPath id="clip-path" transform="translate(-2 -2)">
      <rect width="40" height="40" style="fill: none"/>
    </clipPath>
  </defs>
  <title>pluginIcon</title>
  <g id="Layer_2">
    <g id="Layer_1-2">
      <g style="clip-path: url(#clip-path)">
        <g>
          <polygon points="15.77 12.332 17.788 14.298 19.353 15.824 18.739 17.923 18.231 19.66 21.143 20.511 21.654 18.765 22.267 16.67 24.405 16.225 27.17 15.649 27.948 11.92 17.127 8.76 15.77 12.332" style="fill: none"/>
          <polygon points="22 25 17.754 25 21.574 26.115 19.372 33.232 13.61 27.76 14.417 25 0 25 0 36 22 36 22 25" style="fill: #81fd3f"/>
          <g>
            <path d="M32.43713,2l-1.99206,9.539L19.99274,8.48682,22.459,2h-3.891L14.15222,13.61432a2.76755,2.76755,0,0,0,.67194,2.92578l2.42389,2.36279-1.01911,3.483a1.81806,1.81806,0,0,0,1.23554,2.256l6.40509,1.87042a1.81769,1.81769,0,0,0,2.25476-1.2348l1.02179-3.49231,3.3211-.69153a2.77279,2.77279,0,0,0,2.13916-2.10358L36.15314,2ZM29.16956,17.64856l-2.7649.57611-2.13781.44513-.61292,2.09534-.5108,1.7456L20.231,21.66016l.50836-1.73743.61383-2.09839L19.7876,16.29846,17.77014,14.3324l1.35724-3.57233,10.82056,3.15979Z" transform="translate(-2 -2)" style="fill: #fff"/>
            <path d="M32.43713,2l-1.99206,9.539L19.99274,8.48682,22.459,2h-3.891L14.15222,13.61432a2.76755,2.76755,0,0,0,.67194,2.92578l2.42389,2.36279-1.01911,3.483a1.81806,1.81806,0,0,0,1.23554,2.256l6.40509,1.87042a1.81769,1.81769,0,0,0,2.25476-1.2348l1.02179-3.49231,3.3211-.69153a2.77279,2.77279,0,0,0,2.13916-2.10358L36.15314,2ZM29.16956,17.64856l-2.7649.57611-2.13781.44513-.61292,2.09534-.5108,1.7456L20.231,21.66016l.50836-1.73743.61383-2.09839L19.7876,16.29846,17.77014,14.3324l1.35724-3.57233,10.82056,3.15979Z" transform="translate(-2 -2)" style="fill: #6e6e6e"/>
          </g>
          <g>
            <polygon points="19.372 33.232 21.574 26.115 17.754 25 14.68 24.102 14.417 25 13.61 27.76 19.372 33.232" style="fill: #fff"/>
            <polygon points="19.372 33.232 21.574 26.115 17.754 25 14.68 24.102 14.417 25 13.61 27.76 19.372 33.232" style="fill: #6e6e6e"/>
          </g>
        </g>
      </g>
    </g>
  </g>
</svg>
