<svg xmlns="http://www.w3.org/2000/svg" viewBox="0 0 34.18384 36">
  <defs>
    <clipPath id="clip-path" transform="translate(-2 -2)">
      <rect width="40" height="40" style="fill: none"/>
    </clipPath>
  </defs>
  <title>pluginIcon_dark</title>
  <g id="Layer_2">
    <g id="Layer_1-2">
      <g style="clip-path: url(#clip-path)">
        <g>
          <polygon points="15.77 12.479 15.77 12.479 17.788 14.445 19.353 15.971 18.739 18.07 18.231 19.807 21.143 20.658 21.654 18.912 22.267 16.817 24.405 16.371 27.17 15.795 27.948 12.067 17.127 8.907 15.77 12.479" style="fill: none"/>
          <polygon points="22 25 17.251 25 21.574 26.262 19.372 33.379 13.61 27.907 14.46 25 0 25 0 36 22 36 22 25" style="fill: #a73c85"/>
          <g>
            <path d="M32.46777,2l-2.0227,9.68579L19.99274,8.63361,22.51483,2H18.62372l-4.4715,11.76111a2.76735,2.76735,0,0,0,.67194,2.92578l2.42389,2.36285-1.01911,3.483a1.81811,1.81811,0,0,0,1.23554,2.256l6.40509,1.87042a1.81779,1.81779,0,0,0,2.25476-1.2348l1.02179-3.49237,3.3211-.69147A2.773,2.773,0,0,0,32.60638,19.137L36.18384,2ZM29.16956,17.79541l-2.7649.576-2.13781.44519-.61292,2.09528-.5108,1.74566L20.231,21.807l.50836-1.73737.61383-2.09839L19.7876,16.44525l-2.01746-1.966v-.00006l1.35724-3.57233,10.82056,3.15985Z" transform="translate(-2 -2)" style="fill: #fff"/>
            <path d="M32.46777,2l-2.0227,9.68579L19.99274,8.63361,22.51483,2H18.62372l-4.4715,11.76111a2.76735,2.76735,0,0,0,.67194,2.92578l2.42389,2.36285-1.01911,3.483a1.81811,1.81811,0,0,0,1.23554,2.256l6.40509,1.87042a1.81779,1.81779,0,0,0,2.25476-1.2348l1.02179-3.49237,3.3211-.69147A2.773,2.773,0,0,0,32.60638,19.137L36.18384,2ZM29.16956,17.79541l-2.7649.576-2.13781.44519-.61292,2.09528-.5108,1.74566L20.231,21.807l.50836-1.73737.61383-2.09839L19.7876,16.44525l-2.01746-1.966v-.00006l1.35724-3.57233,10.82056,3.15985Z" transform="translate(-2 -2)" style="fill: #afb1b3"/>
          </g>
          <g>
            <polygon points="19.372 33.379 21.574 26.262 17.251 25 14.68 24.249 14.46 25 13.61 27.907 19.372 33.379" style="fill: #fff"/>
            <polygon points="19.372 33.379 21.574 26.262 17.251 25 14.68 24.249 14.46 25 13.61 27.907 19.372 33.379" style="fill: #afb1b3"/>
          </g>
        </g>
      </g>
    </g>
  </g>
</svg>
